<svg width="158" height="155" viewBox="0 0 158 155" fill="none" xmlns="http://www.w3.org/2000/svg">
<path fill-rule="evenodd" clip-rule="evenodd" d="M79 153C120.974 153 155 118.974 155 77C155 35.0264 120.974 1 79 1C37.0264 1 3 35.0264 3 77C3 118.974 37.0264 153 79 153ZM79 154C121.526 154 156 119.526 156 77C156 34.4741 121.526 0 79 0C36.4741 0 2 34.4741 2 77C2 119.526 36.4741 154 79 154Z" fill="black"/>
<path fill-rule="evenodd" clip-rule="evenodd" d="M3.5 76C3.5 117.697 37.3025 151.5 79 151.5C120.697 151.5 154.5 117.697 154.5 76H157.5C157.5 119.354 122.354 154.5 79 154.5C35.6456 154.5 0.5 119.354 0.5 76H3.5Z" fill="black"/>
</svg>
