<svg width="177" height="173" viewBox="0 0 177 173" fill="none" xmlns="http://www.w3.org/2000/svg">
<path fill-rule="evenodd" clip-rule="evenodd" d="M172.106 65.1651C159.742 19.0203 112.311 -8.36412 66.1658 4.00035C20.0209 16.3648 -7.36344 63.796 5.00103 109.941L4.03511 110.2C-8.47231 63.5213 19.2287 15.5418 65.9069 3.03443C112.585 -9.47298 160.565 18.228 173.072 64.9063C185.58 111.585 157.879 159.564 111.2 172.071L110.941 171.105C157.086 158.741 184.471 111.31 172.106 65.1651Z" fill="black"/>
<path fill-rule="evenodd" clip-rule="evenodd" d="M66.2946 4.48333C20.4166 16.7763 -6.80953 63.9333 5.48347 109.811L3.55162 110.329C-9.02726 63.384 18.832 15.1304 65.777 2.55148L66.2946 4.48333Z" fill="black"/>
</svg>
