<?xml version="1.0" encoding="utf-8"?>
<!-- Generator: Adobe Illustrator 18.1.1, SVG Export Plug-In . SVG Version: 6.00 Build 0)  -->
<svg version="1.1" id="Layer_1" xmlns="http://www.w3.org/2000/svg" xmlns:xlink="http://www.w3.org/1999/xlink" x="0px" y="0px"
	 viewBox="0 0 126 22" enable-background="new 0 0 126 22" xml:space="preserve">
<g>
	<path fill="#FFFFFF" d="M14.9,12.2c1.3-0.4,2.2-1.2,3-2.1c0.7-1,1.1-2.2,1.1-3.6c0-0.9-0.2-1.8-0.5-2.5c-0.3-0.8-0.8-1.4-1.5-2
		c-0.6-0.5-1.4-1-2.3-1.3c-0.9-0.3-1.8-0.5-2.9-0.5H0.5C0.2,0.3,0,0.5,0,0.8v20.4c0,0.3,0.2,0.5,0.5,0.5H3c0.3,0,0.5-0.2,0.5-0.5
		v-8.5h7.5l4.4,8.7c0.1,0.2,0.3,0.4,0.5,0.4h2.8c0.4,0,0.6-0.4,0.5-0.8L14.9,12.2z M12,9.5H3.6V3.5H12c1,0,1.8,0.3,2.4,0.8
		c0.6,0.6,0.9,1.3,0.9,2.2c0,0.9-0.3,1.6-0.9,2.2C13.8,9.2,13,9.5,12,9.5z"/>
	<path fill="#FFFFFF" d="M49.5,18.6H35.4V12h10.2c0.3,0,0.5-0.2,0.5-0.5V9.4c0-0.3-0.2-0.5-0.5-0.5H35.4V3.4h13.7
		c0.3,0,0.6-0.2,0.6-0.5V0.8c0-0.3-0.2-0.6-0.6-0.6H32.3c-0.3,0-0.5,0.2-0.5,0.6v20.4c0,0.3,0.2,0.5,0.5,0.5h17.2
		c0.3,0,0.6-0.2,0.6-0.5v-2.1C50.1,18.8,49.9,18.6,49.5,18.6z"/>
	<path fill="#FFFFFF" d="M65.3,0.3h-2.5c-0.3,0-0.5,0.2-0.5,0.6v20.4c0,0.3,0.2,0.5,0.5,0.5h2.5c0.3,0,0.5-0.2,0.5-0.5V0.8
		C65.8,0.6,65.6,0.3,65.3,0.3z"/>
	<path fill="#FFFFFF" d="M92.1,10.1c-3.4-1.1-6.9-1.6-8.2-2.4c-1-0.6-1.3-1.1-1.3-2c0-1,1.1-1.7,2.3-2.2c1.7-0.6,3.9-0.5,5.1-0.3
		s2.9,0.9,4,1.6c0.7,0.4,0.9,0,1-0.1c0.1-0.1,0.9-1.4,1.1-1.8c0.2-0.3,0-0.6-0.4-0.9c-0.5-0.3-1.8-1.2-4.3-1.8
		c-2.4-0.5-4.7-0.5-6.9,0C82.3,1,80.9,2,80.1,3.1c-0.8,1.2-1,2.1-0.9,3.3c0.1,1.3,0.6,2.4,2.1,3.5c1.6,1.1,3.1,1.6,4.9,2.1
		c1.8,0.5,4.6,1.2,5.5,1.6c1,0.4,1.9,1,1.9,2.3c0,1.2-1.6,3-5.9,3c-4.4,0-7-2.6-7-2.6s-0.3-0.3-0.8,0.1c0,0-1,1.2-1.3,1.6
		c-0.3,0.3-0.1,0.6,0.1,0.8s1.6,1.9,5,2.7c3.4,0.9,7,0.8,10-0.8c2.5-1.3,3.3-3.2,3.3-5.1C97,12.9,95.4,11.2,92.1,10.1z"/>
	<path fill="#FFFFFF" d="M121.1,10.1c-3.4-1.1-6.9-1.6-8.2-2.4c-1-0.6-1.3-1.1-1.3-2c0-1,1.1-1.7,2.3-2.2c1.7-0.6,3.9-0.5,5.1-0.3
		s2.9,0.9,4,1.6c0.7,0.4,0.9,0,1-0.1c0.1-0.1,0.9-1.4,1.1-1.8c0.2-0.3,0-0.6-0.4-0.9c-0.5-0.3-1.8-1.2-4.3-1.8
		c-2.4-0.5-4.7-0.5-6.9,0c-2.2,0.5-3.7,1.6-4.4,2.7c-0.8,1.2-1,2.1-0.9,3.3c0.1,1.3,0.6,2.4,2.1,3.5c1.6,1.1,3.1,1.6,4.9,2.1
		c1.8,0.5,4.6,1.2,5.5,1.6c1,0.4,1.9,1,1.9,2.3c0,1.2-1.6,3-5.9,3c-4.4,0-7-2.6-7-2.6s-0.3-0.3-0.8,0.1c0,0-1,1.2-1.3,1.6
		c-0.3,0.3-0.1,0.6,0.1,0.8c0.2,0.2,1.6,1.9,5,2.7s7,0.8,10-0.8c2.5-1.3,3.3-3.2,3.3-5.1C126,12.9,124.4,11.2,121.1,10.1z"/>
</g>
</svg>
